<svg xmlns="http://www.w3.org/2000/svg" width="30" height="30" viewBox="0 0 30 30">
  <path id="icons8-github_1_" data-name="icons8-github (1)" d="M21,6a15,15,0,0,0-3.487,29.588c-.342-.081-.68-.173-1.013-.276V31.875a4.578,4.578,0,0,1-1.312.188A3.408,3.408,0,0,1,12,29.25a2.921,2.921,0,0,0-.847-1.447c-.443-.395-.65-.4-.653-.531-.006-.283.38-.272.563-.272.938,0,1.648,1,1.978,1.513A2.661,2.661,0,0,0,15.188,30a3.308,3.308,0,0,0,1.383-.246A4.441,4.441,0,0,1,18,27c-3.518-.7-6-2.721-6-6a6.691,6.691,0,0,1,1.807-4.5,6.089,6.089,0,0,1-.307-2.067A6.779,6.779,0,0,1,13.875,12a6.67,6.67,0,0,1,4.157,1.926,10.56,10.56,0,0,1,5.937,0A6.67,6.67,0,0,1,28.125,12a6.741,6.741,0,0,1,.375,2.438,7.228,7.228,0,0,1-.249,2.133A6.672,6.672,0,0,1,30,21c0,3.279-2.483,5.3-6,6a4.446,4.446,0,0,1,1.5,3.375v4.937c-.332.1-.67.195-1.013.276A15,15,0,0,0,21,6Zm1.046,29.96c-.346.024-.694.04-1.046.04C21.352,36,21.7,35.983,22.046,35.96Zm2.292-.337a14.967,14.967,0,0,1-2.062.32A15.055,15.055,0,0,0,24.338,35.623ZM21,36c-.352,0-.7-.016-1.046-.04C20.3,35.983,20.648,36,21,36Zm-1.276-.058a14.959,14.959,0,0,1-2.062-.32A15.061,15.061,0,0,0,19.724,35.942Z" transform="translate(-6 -6)" fill="#fff"/>
</svg>
